<?xml version="1.0" encoding="UTF-8" standalone="no"?>
<!DOCTYPE svg PUBLIC "-//W3C//DTD SVG 1.1//EN"
 "http://www.w3.org/Graphics/SVG/1.1/DTD/svg11.dtd">
<!-- Generated by graphviz version 2.47.3 (20210619.1520)
 -->
<!-- Title: dependencies Pages: 1 -->
<svg width="809pt" height="247pt"
 viewBox="0.00 0.00 809.00 246.80" xmlns="http://www.w3.org/2000/svg" xmlns:xlink="http://www.w3.org/1999/xlink">
<g id="graph0" class="graph" transform="scale(1 1) rotate(0) translate(4 242.8)">
<title>dependencies</title>
<polygon fill="white" stroke="transparent" points="-4,4 -4,-242.8 805,-242.8 805,4 -4,4"/>
<text text-anchor="middle" x="400.5" y="-8.2" font-family="sans-serif" font-size="14.00">dependencies</text>
<g id="clust1" class="cluster">
<title>cluster_SharedModule</title>
<polygon fill="none" stroke="black" stroke-dasharray="1,5" points="8,-32.8 8,-230.8 793,-230.8 793,-32.8 8,-32.8"/>
</g>
<g id="clust2" class="cluster">
<title>cluster_SharedModule_declarations</title>
<polygon fill="none" stroke="black" points="163,-40.8 163,-92.8 669,-92.8 669,-40.8 163,-40.8"/>
</g>
<g id="clust8" class="cluster">
<title>cluster_SharedModule_exports</title>
<polygon fill="none" stroke="black" points="16,-170.8 16,-222.8 785,-222.8 785,-170.8 16,-170.8"/>
</g>
<!-- BtnRouteComponent -->
<g id="node1" class="node">
<title>BtnRouteComponent</title>
<polygon fill="#ffffb3" stroke="black" points="660.5,-84.8 525.5,-84.8 525.5,-48.8 660.5,-48.8 660.5,-84.8"/>
<text text-anchor="middle" x="593" y="-62.6" font-family="Times,serif" font-size="14.00">BtnRouteComponent</text>
</g>
<!-- SharedModule -->
<g id="node5" class="node">
<title>SharedModule</title>
<polygon fill="#8dd3c7" stroke="black" points="441.42,-149.8 438.42,-153.8 417.42,-153.8 414.42,-149.8 342.58,-149.8 342.58,-113.8 441.42,-113.8 441.42,-149.8"/>
<text text-anchor="middle" x="392" y="-127.6" font-family="Times,serif" font-size="14.00">SharedModule</text>
</g>
<!-- BtnRouteComponent&#45;&gt;SharedModule -->
<g id="edge1" class="edge">
<title>BtnRouteComponent&#45;&gt;SharedModule</title>
<path fill="none" stroke="black" d="M558.44,-84.83C558.44,-101.2 558.44,-122.8 558.44,-122.8 558.44,-122.8 451.49,-122.8 451.49,-122.8"/>
<polygon fill="black" stroke="black" points="451.49,-119.3 441.49,-122.8 451.49,-126.3 451.49,-119.3"/>
</g>
<!-- StateDirective -->
<g id="node2" class="node">
<title>StateDirective</title>
<polygon fill="#ffffb3" stroke="black" points="507.08,-84.8 410.92,-84.8 410.92,-48.8 507.08,-48.8 507.08,-84.8"/>
<text text-anchor="middle" x="459" y="-62.6" font-family="Times,serif" font-size="14.00">StateDirective</text>
</g>
<!-- StateDirective&#45;&gt;SharedModule -->
<g id="edge2" class="edge">
<title>StateDirective&#45;&gt;SharedModule</title>
<path fill="none" stroke="black" d="M426.09,-84.91C426.09,-84.91 426.09,-103.79 426.09,-103.79"/>
<polygon fill="black" stroke="black" points="422.59,-103.79 426.09,-113.79 429.59,-103.79 422.59,-103.79"/>
</g>
<!-- TabLightComponent -->
<g id="node3" class="node">
<title>TabLightComponent</title>
<polygon fill="#ffffb3" stroke="black" points="392.93,-84.8 259.07,-84.8 259.07,-48.8 392.93,-48.8 392.93,-84.8"/>
<text text-anchor="middle" x="326" y="-62.6" font-family="Times,serif" font-size="14.00">TabLightComponent</text>
</g>
<!-- TabLightComponent&#45;&gt;SharedModule -->
<g id="edge3" class="edge">
<title>TabLightComponent&#45;&gt;SharedModule</title>
<path fill="none" stroke="black" d="M367.75,-84.91C367.75,-84.91 367.75,-103.79 367.75,-103.79"/>
<polygon fill="black" stroke="black" points="364.25,-103.79 367.75,-113.79 371.25,-103.79 364.25,-103.79"/>
</g>
<!-- TotalPipe -->
<g id="node4" class="node">
<title>TotalPipe</title>
<polygon fill="#ffffb3" stroke="black" points="241.44,-84.8 170.56,-84.8 170.56,-48.8 241.44,-48.8 241.44,-84.8"/>
<text text-anchor="middle" x="206" y="-62.6" font-family="Times,serif" font-size="14.00">TotalPipe</text>
</g>
<!-- TotalPipe&#45;&gt;SharedModule -->
<g id="edge4" class="edge">
<title>TotalPipe&#45;&gt;SharedModule</title>
<path fill="none" stroke="black" d="M215.38,-84.83C215.38,-101.2 215.38,-122.8 215.38,-122.8 215.38,-122.8 332.33,-122.8 332.33,-122.8"/>
<polygon fill="black" stroke="black" points="332.33,-126.3 342.33,-122.8 332.33,-119.3 332.33,-126.3"/>
</g>
<!-- BtnRouteComponent  -->
<g id="node6" class="node">
<title>BtnRouteComponent </title>
<polygon fill="#fb8072" stroke="black" points="777,-214.8 639,-214.8 639,-178.8 777,-178.8 777,-214.8"/>
<text text-anchor="middle" x="708" y="-192.6" font-family="Times,serif" font-size="14.00">BtnRouteComponent </text>
</g>
<!-- SharedModule&#45;&gt;BtnRouteComponent  -->
<g id="edge5" class="edge">
<title>SharedModule&#45;&gt;BtnRouteComponent </title>
<path fill="none" stroke="black" stroke-dasharray="5,2" d="M441.37,-131.8C516.17,-131.8 649.62,-131.8 649.62,-131.8 649.62,-131.8 649.62,-168.69 649.62,-168.69"/>
<polygon fill="black" stroke="black" points="646.13,-168.69 649.62,-178.69 653.13,-168.69 646.13,-168.69"/>
</g>
<!-- IconsModule  -->
<g id="node7" class="node">
<title>IconsModule </title>
<polygon fill="#fb8072" stroke="black" points="620.87,-214.8 527.13,-214.8 527.13,-178.8 620.87,-178.8 620.87,-214.8"/>
<text text-anchor="middle" x="574" y="-192.6" font-family="Times,serif" font-size="14.00">IconsModule </text>
</g>
<!-- SharedModule&#45;&gt;IconsModule  -->
<g id="edge6" class="edge">
<title>SharedModule&#45;&gt;IconsModule </title>
<path fill="none" stroke="black" stroke-dasharray="5,2" d="M441.34,-140.8C499.86,-140.8 589.56,-140.8 589.56,-140.8 589.56,-140.8 589.56,-168.77 589.56,-168.77"/>
<polygon fill="black" stroke="black" points="586.06,-168.77 589.56,-178.77 593.06,-168.77 586.06,-168.77"/>
</g>
<!-- StateDirective  -->
<g id="node8" class="node">
<title>StateDirective </title>
<polygon fill="#fb8072" stroke="black" points="509.58,-214.8 410.42,-214.8 410.42,-178.8 509.58,-178.8 509.58,-214.8"/>
<text text-anchor="middle" x="460" y="-192.6" font-family="Times,serif" font-size="14.00">StateDirective </text>
</g>
<!-- SharedModule&#45;&gt;StateDirective  -->
<g id="edge7" class="edge">
<title>SharedModule&#45;&gt;StateDirective </title>
<path fill="none" stroke="black" stroke-dasharray="5,2" d="M425.71,-149.91C425.71,-149.91 425.71,-168.79 425.71,-168.79"/>
<polygon fill="black" stroke="black" points="422.21,-168.79 425.71,-178.79 429.21,-168.79 422.21,-168.79"/>
</g>
<!-- TabLightComponent  -->
<g id="node9" class="node">
<title>TabLightComponent </title>
<polygon fill="#fb8072" stroke="black" points="392.43,-214.8 255.57,-214.8 255.57,-178.8 392.43,-178.8 392.43,-214.8"/>
<text text-anchor="middle" x="324" y="-192.6" font-family="Times,serif" font-size="14.00">TabLightComponent </text>
</g>
<!-- SharedModule&#45;&gt;TabLightComponent  -->
<g id="edge8" class="edge">
<title>SharedModule&#45;&gt;TabLightComponent </title>
<path fill="none" stroke="black" stroke-dasharray="5,2" d="M367.63,-149.91C367.63,-149.91 367.63,-168.79 367.63,-168.79"/>
<polygon fill="black" stroke="black" points="364.13,-168.79 367.63,-178.79 371.13,-168.79 364.13,-168.79"/>
</g>
<!-- TemplatesModule  -->
<g id="node10" class="node">
<title>TemplatesModule </title>
<polygon fill="#fb8072" stroke="black" points="237.86,-214.8 116.14,-214.8 116.14,-178.8 237.86,-178.8 237.86,-214.8"/>
<text text-anchor="middle" x="177" y="-192.6" font-family="Times,serif" font-size="14.00">TemplatesModule </text>
</g>
<!-- SharedModule&#45;&gt;TemplatesModule  -->
<g id="edge9" class="edge">
<title>SharedModule&#45;&gt;TemplatesModule </title>
<path fill="none" stroke="black" stroke-dasharray="5,2" d="M342.57,-140.8C283.66,-140.8 193.08,-140.8 193.08,-140.8 193.08,-140.8 193.08,-168.77 193.08,-168.77"/>
<polygon fill="black" stroke="black" points="189.58,-168.77 193.08,-178.77 196.58,-168.77 189.58,-168.77"/>
</g>
<!-- TotalPipe  -->
<g id="node11" class="node">
<title>TotalPipe </title>
<polygon fill="#fb8072" stroke="black" points="97.94,-214.8 24.06,-214.8 24.06,-178.8 97.94,-178.8 97.94,-214.8"/>
<text text-anchor="middle" x="61" y="-192.6" font-family="Times,serif" font-size="14.00">TotalPipe </text>
</g>
<!-- SharedModule&#45;&gt;TotalPipe  -->
<g id="edge10" class="edge">
<title>SharedModule&#45;&gt;TotalPipe </title>
<path fill="none" stroke="black" stroke-dasharray="5,2" d="M342.45,-131.8C250.11,-131.8 61,-131.8 61,-131.8 61,-131.8 61,-168.69 61,-168.69"/>
<polygon fill="black" stroke="black" points="57.5,-168.69 61,-178.69 64.5,-168.69 57.5,-168.69"/>
</g>
</g>
</svg>
